<svg xmlns="http://www.w3.org/2000/svg" width="22.039" height="23.466" viewBox="0 0 22.039 23.466">
  <g id="icons" transform="translate(-0.117 0.65)">
    <path id="settings" d="M20.564,13.3l-1.108-.647a1.9,1.9,0,0,1,0-3.233l1.108-.647a1.755,1.755,0,0,0,.647-2.494l-.924-1.57a1.755,1.755,0,0,0-2.494-.647l-1.108.647a1.843,1.843,0,0,1-2.771-1.57V1.847A1.853,1.853,0,0,0,12.067,0H10.22A1.853,1.853,0,0,0,8.373,1.847v1.2A1.843,1.843,0,0,1,5.6,4.618L4.494,4.064A1.791,1.791,0,0,0,2,4.71L1.076,6.28a2.014,2.014,0,0,0,.647,2.586l1.108.647a1.819,1.819,0,0,1,0,3.14L1.723,13.3a1.755,1.755,0,0,0-.647,2.494L2,17.364a1.755,1.755,0,0,0,2.494.647L5.6,17.456a1.843,1.843,0,0,1,2.771,1.57v1.293a1.853,1.853,0,0,0,1.847,1.847h1.847a1.853,1.853,0,0,0,1.847-1.847v-1.2a1.843,1.843,0,0,1,2.771-1.57l1.108.647a1.791,1.791,0,0,0,2.494-.647l.924-1.57A2.107,2.107,0,0,0,20.564,13.3Zm-9.421,1.478a3.694,3.694,0,1,1,3.694-3.694A3.705,3.705,0,0,1,11.144,14.778Z" transform="translate(0)" fill="none" stroke="#cacaca" stroke-width="1.3"/>
  </g>
</svg>
