<svg xmlns="http://www.w3.org/2000/svg" xmlns:xlink="http://www.w3.org/1999/xlink" width="99.129" height="29.343" viewBox="0 0 99.129 29.343">
  <defs>
    <clipPath id="clip-path">
      <path id="Path_25" data-name="Path 25" d="M80.575,259.4H75.733c-.072.072-.145.145-.145.217a1.249,1.249,0,0,0,.072.723c.361,1.518.723,3.036,1.156,4.553.65,2.53,1.229,4.987,1.879,7.516L80.648,280c.578,2.241,1.156,4.553,1.735,6.794.072.361.217.723.289,1.012a1.165,1.165,0,0,0,.289.506.266.266,0,0,0,.217.072H87.8c.072,0,.145-.072.217-.145,0-.072.072-.072.072-.145v-.361c0-.072-.072-.217-.072-.289-.361-1.373-.65-2.674-1.012-4.047-.578-2.385-1.229-4.842-1.807-7.227l-1.951-7.589c-.65-2.457-1.229-4.842-1.807-7.227-.145-.434-.217-.867-.361-1.229A1.045,1.045,0,0,0,80.575,259.4Z" transform="translate(-75.559 -259.4)"/>
    </clipPath>
    <clipPath id="clip-path-2">
      <path id="Path_26" data-name="Path 26" d="M80.587,288.382H75.745c-.072-.072-.145-.145-.145-.217a2.458,2.458,0,0,1,.072-.723c.361-1.518.723-3.036,1.156-4.553.65-2.53,1.229-4.987,1.879-7.517l1.951-7.589c.578-2.241,1.156-4.553,1.735-6.794.072-.361.217-.723.289-1.012a1.165,1.165,0,0,1,.289-.506.266.266,0,0,1,.217-.072h4.626c.072,0,.145.072.217.145,0,.072.072.072.072.145v.361c0,.072-.072.217-.072.289-.361,1.373-.65,2.674-1.012,4.047-.578,2.385-1.229,4.842-1.807,7.227L83.261,279.2l-1.807,7.155c-.145.434-.217.867-.361,1.229A1.519,1.519,0,0,1,80.587,288.382Z" transform="translate(-75.6 -259.4)"/>
    </clipPath>
  </defs>
  <g id="verzeo_new_logo" transform="translate(-75.559 -259.4)">
    <g id="Group_1" transform="translate(97.426 259.4)">
      <path id="Path_1" d="M88.031,259.7H76.106a.494.494,0,0,0-.506.506h0v27.9a.494.494,0,0,0,.506.506H88.031a.494.494,0,0,0,.506-.506h0v-3.975a.494.494,0,0,0-.506-.506H80.587V276.4h6.432a.494.494,0,0,0,.506-.506h0v-3.758a.494.494,0,0,0-.506-.506H80.587V264.47h7.444a.494.494,0,0,0,.506-.506h0v-3.758a.494.494,0,0,0-.506-.506Z" transform="translate(-75.6 -259.483)" fill="#fcd203"/>
      <path id="Path_2" d="M108.3,275.6a6.368,6.368,0,0,0,2.53-2.819,10.172,10.172,0,0,0,.8-4.409q0-8.673-7.589-8.673H97.606a.494.494,0,0,0-.506.506h0v27.9a.494.494,0,0,0,.506.506h3.975a.494.494,0,0,0,.506-.506h0V276.685H103.6l3.614,11.564a.458.458,0,0,0,.434.361h4.264a.625.625,0,0,0,.434-.217.478.478,0,0,0,.072-.434Zm-6.143-11.13h1.59q1.843,0,2.385.867a2.436,2.436,0,0,1,.361,1.229,14.079,14.079,0,0,1,.145,1.807,7.627,7.627,0,0,1-.145,1.807,3.1,3.1,0,0,1-.361,1.156,1.582,1.582,0,0,1-.723.65,2.544,2.544,0,0,1-1.445.217h-1.807V264.47Z" transform="translate(-81.561 -259.483)" fill="#fcd203"/>
      <path id="Path_3" d="M132.331,259.7H120.84a.494.494,0,0,0-.506.506h0v3.758a.494.494,0,0,0,.506.506h6.432l-7.3,19.948c0,.072,0,.145-.072.145V288.1a.494.494,0,0,0,.506.506h11.853a.494.494,0,0,0,.506-.506h0v-3.758a.494.494,0,0,0-.506-.506h-6.938l7.444-20.309c0-.072,0-.145.072-.145v-3.18A.494.494,0,0,0,132.331,259.7Z" transform="translate(-87.882 -259.483)" fill="#fcd203"/>
      <path id="Path_4" d="M153.731,259.7H141.806a.494.494,0,0,0-.506.506h0v27.9a.494.494,0,0,0,.506.506h11.925a.494.494,0,0,0,.506-.506h0v-3.975a.494.494,0,0,0-.506-.506h-7.444V276.4h6.432a.494.494,0,0,0,.506-.506h0v-3.758a.494.494,0,0,0-.506-.506h-6.432V264.47h7.444a.494.494,0,0,0,.506-.506h0v-3.758A.609.609,0,0,0,153.731,259.7Z" transform="translate(-93.816 -259.483)" fill="#fcd203"/>
      <path id="Path_5" d="M176.232,263.52a6.516,6.516,0,0,0-1.662-2.313,10.836,10.836,0,0,0-2.313-1.373,7.807,7.807,0,0,0-5.131,0,6.341,6.341,0,0,0-2.313,1.373,6.516,6.516,0,0,0-1.662,2.313,8.076,8.076,0,0,0-.65,3.18v14.744a8.428,8.428,0,0,0,.65,3.252,6.263,6.263,0,0,0,1.662,2.241,6.778,6.778,0,0,0,2.313,1.373,7.863,7.863,0,0,0,2.6.434,8.185,8.185,0,0,0,2.6-.434,6.779,6.779,0,0,0,2.313-1.373A7.247,7.247,0,0,0,176.3,284.7a8.169,8.169,0,0,0,.65-3.252V266.7A9.693,9.693,0,0,0,176.232,263.52Zm-8.167,1.446a2.475,2.475,0,0,1,3.18,0,2.183,2.183,0,0,1,.65,1.735v14.744a1.968,1.968,0,0,1-.65,1.735,2.475,2.475,0,0,1-3.18,0,2.183,2.183,0,0,1-.65-1.735V266.7A2.462,2.462,0,0,1,168.065,264.965Z" transform="translate(-99.694 -259.4)" fill="#fcd203"/>
    </g>
    <g id="Group_10" transform="translate(75.559 259.618)">
      <g id="Group_2" transform="translate(0 0.019)">
        <path id="Path_6" d="M80.575,259.4H75.733c-.072.072-.145.145-.145.217a1.249,1.249,0,0,0,.072.723c.361,1.518.723,3.036,1.156,4.553.65,2.53,1.229,4.987,1.879,7.516L80.648,280c.578,2.241,1.156,4.553,1.735,6.794.072.361.217.723.289,1.012a1.165,1.165,0,0,0,.289.506.266.266,0,0,0,.217.072H87.8c.072,0,.145-.072.217-.145,0-.072.072-.072.072-.145v-.361c0-.072-.072-.217-.072-.289-.361-1.373-.65-2.674-1.012-4.047-.578-2.385-1.229-4.842-1.807-7.227l-1.951-7.589c-.65-2.457-1.229-4.842-1.807-7.227-.145-.434-.217-.867-.361-1.229A1.045,1.045,0,0,0,80.575,259.4Z" transform="translate(-75.559 -259.4)" fill="#fcd203"/>
      </g>
      <g id="Group_4" transform="translate(0 0.019)">
        <g id="Group_198" data-name="Group 198">
          <g id="Group_3" clip-path="url(#clip-path)">
            <path id="Path_7" d="M81.4,287.821v-.072c.072-.434.217-.8.289-1.229.145-.434.217-.867.361-1.3.217-.867.434-1.735.65-2.53.217-.867.434-1.735.65-2.53.072-.361.145-.65.217-.94.65-2.457,1.229-4.987,1.879-7.444.65-2.6,1.373-5.2,2.024-7.806.361-1.229.65-2.53.94-3.758a2.567,2.567,0,0,1,.289-.65c.072-.072.072-.145.145-.217a.376.376,0,0,1,.289-.145h4.7a.265.265,0,0,1,.217.072c.072.072.072.072.072.145a1.78,1.78,0,0,1-.072.867c-.072.289-.145.578-.217.8-.145.578-.289,1.156-.434,1.662l-1.951,7.589c-.65,2.674-1.373,5.276-2.024,7.878-.65,2.674-1.373,5.348-2.024,8.022-.145.506-.217,1.012-.361,1.445-.072.145-.072.289-.145.434a.74.74,0,0,1-.361.434H81.617l-.072-.072A1.074,1.074,0,0,1,81.4,287.821Z" transform="translate(-77.178 -259.345)" fill="#fcd203"/>
            <path id="Path_8" d="M81.883,287.821v-.072c.072-.434.217-.8.289-1.229.145-.434.217-.867.361-1.3.217-.867.434-1.735.65-2.53.217-.867.434-1.735.65-2.53.072-.361.145-.65.217-.94.65-2.457,1.229-4.987,1.879-7.444.65-2.6,1.373-5.2,2.024-7.806.361-1.229.65-2.53.94-3.758a2.566,2.566,0,0,1,.289-.65c.072-.072.072-.145.145-.217a.375.375,0,0,1,.289-.145h4.7a.265.265,0,0,1,.217.072c.072.072.072.072.072.145a1.78,1.78,0,0,1-.072.867c-.072.289-.145.578-.217.8-.145.578-.289,1.156-.434,1.662L91.93,270.33c-.65,2.674-1.373,5.276-2.024,7.878-.65,2.674-1.373,5.348-2.024,8.022-.145.506-.217,1.012-.361,1.445-.072.145-.072.289-.145.434a.74.74,0,0,1-.361.434H82.1l-.072-.072A.575.575,0,0,1,81.883,287.821Z" transform="translate(-77.3 -259.345)" fill="#f8ce07"/>
            <path id="Path_9" d="M82.289,287.821v-.072c.072-.434.217-.8.289-1.229.145-.434.217-.867.361-1.3.217-.867.434-1.735.65-2.53.217-.867.434-1.735.65-2.53.072-.361.145-.65.217-.94.65-2.457,1.229-4.987,1.879-7.444.65-2.6,1.373-5.2,2.024-7.806.361-1.229.65-2.53.94-3.758a2.566,2.566,0,0,1,.289-.65c.072-.072.072-.145.145-.217a.376.376,0,0,1,.289-.145h4.7a.265.265,0,0,1,.217.072c.072.072.072.072.072.145a1.78,1.78,0,0,1-.072.867c-.072.289-.145.578-.217.8-.145.578-.289,1.156-.434,1.662l-1.951,7.589c-.65,2.674-1.373,5.276-2.024,7.878-.65,2.674-1.373,5.348-2.024,8.022-.145.506-.217,1.012-.361,1.445-.072.145-.072.289-.145.434a.74.74,0,0,1-.361.434H82.506l-.072-.072A.737.737,0,0,1,82.289,287.821Z" transform="translate(-77.417 -259.345)" fill="#f4ca0b"/>
            <path id="Path_10" d="M82.7,287.821v-.072c.072-.434.217-.8.289-1.229.145-.434.217-.867.361-1.3.217-.867.434-1.735.65-2.53.217-.867.434-1.735.65-2.53.072-.361.145-.65.217-.94.65-2.457,1.229-4.987,1.879-7.444.65-2.6,1.373-5.2,2.024-7.806.361-1.229.65-2.53.94-3.758a2.566,2.566,0,0,1,.289-.65c.072-.072.072-.145.145-.217a.376.376,0,0,1,.289-.145h4.7a.265.265,0,0,1,.217.072c.072.072.072.072.072.145a1.78,1.78,0,0,1-.072.867c-.072.289-.145.578-.217.8-.145.578-.289,1.156-.434,1.662l-1.951,7.589c-.723,2.674-1.373,5.276-2.024,7.878-.65,2.674-1.373,5.348-2.024,8.022-.145.506-.217,1.012-.361,1.445-.072.145-.072.289-.145.434a.74.74,0,0,1-.361.434H82.917l-.072-.072A1.189,1.189,0,0,1,82.7,287.821Z" transform="translate(-77.539 -259.345)" fill="#f0c710"/>
            <path id="Path_11" d="M83.189,287.821v-.072c.072-.434.217-.8.289-1.229.145-.434.217-.867.361-1.3.217-.867.434-1.735.65-2.53.217-.867.434-1.735.65-2.53.072-.361.145-.65.217-.94.65-2.457,1.229-4.987,1.879-7.444.65-2.6,1.373-5.2,2.024-7.806.361-1.229.65-2.53.94-3.758a2.566,2.566,0,0,1,.289-.65c.072-.072.072-.145.145-.217a.376.376,0,0,1,.289-.145h4.7a.265.265,0,0,1,.217.072c.072.072.072.072.072.145a1.78,1.78,0,0,1-.072.867c-.072.289-.145.578-.217.8-.145.578-.289,1.156-.434,1.662l-1.951,7.589c-.65,2.674-1.373,5.276-2.024,7.878-.65,2.674-1.373,5.348-2.024,8.022-.145.506-.217,1.012-.361,1.445-.072.145-.072.289-.145.434a.74.74,0,0,1-.361.434H83.406l-.072-.072A.737.737,0,0,1,83.189,287.821Z" transform="translate(-77.666 -259.345)" fill="#ecc314"/>
            <path id="Path_12" d="M83.6,287.821v-.072c.072-.434.217-.8.289-1.229.145-.434.217-.867.361-1.3.217-.867.434-1.735.65-2.53.217-.867.434-1.735.65-2.53.072-.361.145-.65.217-.94.65-2.457,1.229-4.987,1.879-7.444.65-2.6,1.373-5.2,2.024-7.806.361-1.229.65-2.53.94-3.758a2.568,2.568,0,0,1,.289-.65c.072-.072.072-.145.145-.217a.375.375,0,0,1,.289-.145h4.7a.265.265,0,0,1,.217.072c.072.072.072.072.072.145a1.78,1.78,0,0,1-.072.867c-.072.289-.145.578-.217.8-.145.578-.289,1.156-.434,1.662l-1.951,7.589c-.65,2.674-1.373,5.276-2.024,7.878-.65,2.674-1.373,5.348-2.024,8.022-.145.506-.217,1.012-.361,1.445-.072.145-.072.289-.145.434a.74.74,0,0,1-.361.434H83.817l-.072-.072A1.074,1.074,0,0,1,83.6,287.821Z" transform="translate(-77.788 -259.345)" fill="#e7bf18"/>
            <path id="Path_13" d="M84.089,287.821v-.072c.072-.434.217-.8.289-1.229.145-.434.217-.867.361-1.3.217-.867.434-1.735.65-2.53.217-.867.434-1.735.65-2.53.072-.361.145-.65.217-.94.65-2.457,1.229-4.987,1.879-7.444.65-2.6,1.373-5.2,2.024-7.806.361-1.229.65-2.53.94-3.758a2.567,2.567,0,0,1,.289-.65c.072-.072.072-.145.145-.217a.376.376,0,0,1,.289-.145h4.7a.265.265,0,0,1,.217.072c.072.072.072.072.072.145a1.78,1.78,0,0,1-.072.867c-.072.289-.145.578-.217.8-.145.578-.289,1.156-.434,1.662l-1.951,7.589c-.723,2.674-1.373,5.276-2.024,7.878-.65,2.674-1.373,5.348-2.024,8.022-.145.506-.217,1.012-.361,1.445-.072.145-.072.289-.145.434a.74.74,0,0,1-.361.434H84.306l-.072-.072A.737.737,0,0,1,84.089,287.821Z" transform="translate(-77.916 -259.345)" fill="#e3bb1c"/>
            <path id="Path_14" d="M84.5,287.821v-.072c.072-.434.217-.8.289-1.229.145-.434.217-.867.361-1.3.217-.867.434-1.735.65-2.53.217-.867.434-1.735.65-2.53.072-.361.145-.65.217-.94.65-2.457,1.229-4.987,1.879-7.444.65-2.6,1.373-5.2,2.024-7.806.361-1.229.65-2.53.94-3.758a2.566,2.566,0,0,1,.289-.65c.072-.072.072-.145.145-.217a.376.376,0,0,1,.289-.145h4.7a.265.265,0,0,1,.217.072c.072.072.072.072.072.145a1.78,1.78,0,0,1-.072.867c-.072.289-.145.578-.217.8-.145.578-.289,1.156-.434,1.662l-1.951,7.589c-.65,2.674-1.373,5.276-2.024,7.878-.65,2.674-1.373,5.348-2.024,8.022-.145.506-.217,1.012-.361,1.445-.072.145-.072.289-.145.434a.74.74,0,0,1-.361.434H84.717l-.072-.072A1.074,1.074,0,0,1,84.5,287.821Z" transform="translate(-78.038 -259.345)" fill="#dfb821"/>
            <path id="Path_15" d="M84.989,287.821v-.072c.072-.434.217-.8.289-1.229.145-.434.217-.867.361-1.3.217-.867.434-1.735.65-2.53.217-.867.434-1.735.65-2.53.072-.361.145-.65.217-.94.65-2.457,1.229-4.987,1.879-7.444.65-2.6,1.373-5.2,2.024-7.806.361-1.229.65-2.53.94-3.758a2.566,2.566,0,0,1,.289-.65c.072-.072.072-.145.145-.217a.376.376,0,0,1,.289-.145h4.7a.265.265,0,0,1,.217.072c.072.072.072.072.072.145a1.78,1.78,0,0,1-.072.867c-.072.289-.145.578-.217.8-.145.578-.289,1.156-.434,1.662l-1.951,7.589c-.65,2.674-1.373,5.276-2.024,7.878-.65,2.674-1.373,5.348-2.024,8.022-.145.506-.217,1.012-.361,1.445-.072.145-.072.289-.145.434a.74.74,0,0,1-.361.434H85.206l-.072-.072A.737.737,0,0,1,84.989,287.821Z" transform="translate(-78.165 -259.345)" fill="#dbb425"/>
            <path id="Path_16" d="M85.4,287.821v-.072c.072-.434.217-.8.289-1.229.145-.434.217-.867.361-1.3.217-.867.434-1.735.65-2.53.217-.867.434-1.735.65-2.53.072-.361.145-.65.217-.94.65-2.457,1.229-4.987,1.879-7.444.65-2.6,1.373-5.2,2.024-7.806.361-1.229.65-2.53.94-3.758a2.567,2.567,0,0,1,.289-.65c.072-.072.072-.145.145-.217a.376.376,0,0,1,.289-.145h4.7a.266.266,0,0,1,.217.072c.072.072.072.072.072.145a1.78,1.78,0,0,1-.072.867c-.072.289-.145.578-.217.8-.145.578-.289,1.156-.434,1.662l-1.951,7.589c-.723,2.674-1.373,5.276-2.024,7.878-.65,2.674-1.373,5.348-2.024,8.022-.145.506-.217,1.012-.361,1.445-.072.145-.072.289-.145.434a.74.74,0,0,1-.361.434H85.617l-.072-.072A1.074,1.074,0,0,1,85.4,287.821Z" transform="translate(-78.287 -259.345)" fill="#d7b029"/>
          </g>
        </g>
      </g>
      <g id="Group_6" transform="translate(7.418 0)">
        <g id="Group_5">
          <path id="Path_18" d="M80.587,288.382H75.745c-.072-.072-.145-.145-.145-.217a2.458,2.458,0,0,1,.072-.723c.361-1.518.723-3.036,1.156-4.553.65-2.53,1.229-4.987,1.879-7.517l1.951-7.589c.578-2.241,1.156-4.553,1.735-6.794.072-.361.217-.723.289-1.012a1.165,1.165,0,0,1,.289-.506.266.266,0,0,1,.217-.072h4.626c.072,0,.145.072.217.145,0,.072.072.072.072.145v.361c0,.072-.072.217-.072.289-.361,1.373-.65,2.674-1.012,4.047-.578,2.385-1.229,4.842-1.807,7.227L83.261,279.2l-1.807,7.155c-.145.434-.217.867-.361,1.229A1.519,1.519,0,0,1,80.587,288.382Z" transform="translate(-75.6 -259.4)" fill="#fcd203"/>
        </g>
      </g>
      <g id="Group_8" transform="translate(7.418 0)">
        <g id="Group_199" data-name="Group 199">
          <g id="Group_7" clip-path="url(#clip-path-2)">
            <path id="Path_19" d="M88,262.578a.323.323,0,0,0,0-.361c0-.145-.145-.217-.289-.217H75.789a.265.265,0,0,0-.289.289.435.435,0,0,0,.072.289c.361,1.445.8,2.891,1.156,4.336.072.217.289.434.506.361h9.54c0-.072.072-.145.072-.217C87.208,265.614,87.57,264.1,88,262.578Z" transform="translate(-75.572 -260.121)" fill="#fcd203"/>
            <path id="Path_20" d="M88,262.378c0-.145.072-.289,0-.361,0-.145-.145-.217-.289-.217H75.789a.265.265,0,0,0-.289.289.435.435,0,0,0,.072.289c.361,1.445.8,2.891,1.156,4.336.072.217.289.434.506.361h9.54c0-.072.072-.145.072-.217C87.208,265.341,87.57,263.9,88,262.378Z" transform="translate(-75.572 -260.065)" fill="#f8ce07"/>
            <path id="Path_21" d="M88,262.078c0-.145.072-.289,0-.361,0-.145-.145-.217-.289-.217H75.789a.265.265,0,0,0-.289.289.435.435,0,0,0,.072.289c.361,1.445.8,2.891,1.156,4.336.072.217.289.434.506.361h9.54c0-.072.072-.145.072-.217C87.208,265.114,87.57,263.6,88,262.078Z" transform="translate(-75.572 -259.982)" fill="#f4cb0b"/>
            <path id="Path_22" d="M88,261.878c0-.145.072-.289,0-.361,0-.145-.145-.217-.289-.217H75.789a.265.265,0,0,0-.289.289.435.435,0,0,0,.072.289c.361,1.445.8,2.891,1.156,4.336.072.217.289.434.506.361h9.54c0-.072.072-.145.072-.217C87.208,264.914,87.57,263.4,88,261.878Z" transform="translate(-75.572 -259.927)" fill="#f0c710"/>
            <path id="Path_23" d="M88,261.678c0-.145.072-.289,0-.361,0-.145-.145-.217-.289-.217H75.789a.265.265,0,0,0-.289.289.435.435,0,0,0,.072.289c.361,1.445.8,2.891,1.156,4.336.072.217.289.434.506.361h9.54c0-.072.072-.145.072-.217C87.208,264.641,87.57,263.2,88,261.678Z" transform="translate(-75.572 -259.871)" fill="#ecc314"/>
            <path id="Path_24" d="M88,261.378c0-.145.072-.289,0-.361,0-.145-.145-.217-.289-.217H75.789a.265.265,0,0,0-.289.289.435.435,0,0,0,.072.289c.361,1.445.8,2.891,1.156,4.336.072.217.289.434.506.361h9.54c0-.072.072-.145.072-.217C87.208,264.414,87.57,262.9,88,261.378Z" transform="translate(-75.572 -259.788)" fill="#e7c018"/>
            <path id="Path_25-2" data-name="Path_25" d="M88,261.178c0-.145.072-.289,0-.361,0-.145-.145-.217-.289-.217H75.789a.265.265,0,0,0-.289.289.435.435,0,0,0,.072.289c.361,1.445.8,2.891,1.156,4.336.072.217.289.434.506.361h9.54c0-.072.072-.145.072-.217C87.208,264.214,87.57,262.7,88,261.178Z" transform="translate(-75.572 -259.733)" fill="#e3bc1c"/>
            <path id="Path_26-2" data-name="Path_26" d="M88,260.978c0-.145.072-.289,0-.361,0-.145-.145-.217-.289-.217H75.789a.265.265,0,0,0-.289.289.435.435,0,0,0,.072.289c.361,1.445.8,2.891,1.156,4.336.072.217.289.434.506.361h9.54c0-.072.072-.145.072-.217C87.208,263.941,87.57,262.5,88,260.978Z" transform="translate(-75.572 -259.677)" fill="#dfb821"/>
            <path id="Path_27" d="M88,260.678c0-.145.072-.289,0-.361,0-.145-.145-.217-.289-.217H75.789a.265.265,0,0,0-.289.289.435.435,0,0,0,.072.289c.361,1.445.8,2.891,1.156,4.336.072.217.289.434.506.361h9.54c0-.072.072-.145.072-.217C87.208,263.714,87.57,262.2,88,260.678Z" transform="translate(-75.572 -259.594)" fill="#dbb525"/>
            <path id="Path_28" d="M88,260.478c0-.145.072-.289,0-.361,0-.145-.145-.217-.289-.217H75.789a.265.265,0,0,0-.289.289.435.435,0,0,0,.072.289c.361,1.445.8,2.891,1.156,4.336.072.217.289.434.506.361h9.54c0-.072.072-.145.072-.217C87.208,263.514,87.57,262,88,260.478Z" transform="translate(-75.572 -259.539)" fill="#d7b129"/>
          </g>
        </g>
      </g>
      <g id="Group_9" transform="translate(7.264 0)">
        <path id="Path_30" d="M75.6,259.906v-.289c.072-.145.145-.217.289-.217h12c.145,0,.289.072.289.217v.361c-.361,1.445-.723,2.819-1.084,4.264a.458.458,0,0,1-.361.434H77.19a.74.74,0,0,1-.361-.434c-.289-1.156-.65-2.313-.94-3.469C75.817,260.484,75.672,260.2,75.6,259.906Z" transform="translate(-75.6 -259.4)" fill="#fcd203"/>
      </g>
    </g>
  </g>
</svg>
